<svg width="99" height="100" viewBox="0 0 99 100" fill="none" xmlns="http://www.w3.org/2000/svg">
<path fill-rule="evenodd" clip-rule="evenodd" d="M87.7569 78.4307H11.3411C8.39782 78.4307 6 76.0366 6 73.0896V26.5856C6 23.6424 8.39792 21.2446 11.3411 21.2446H14.4854C15.2125 21.2446 15.8043 21.8363 15.8043 22.5634V65.9267C15.8043 67.4196 17.0187 68.6302 18.5077 68.6302H80.5978C82.0907 68.6302 83.3013 67.4157 83.3013 65.9267V22.5634C83.3013 21.8363 83.893 21.2446 84.6201 21.2446H87.7645C90.7077 21.2446 93.1055 23.6386 93.1055 26.5856V73.0896C93.1055 76.0367 90.7115 78.4307 87.7645 78.4307H87.7569ZM11.3411 23.8822C9.84822 23.8822 8.63762 25.0966 8.63762 26.5856V73.0896C8.63762 74.5825 9.85208 75.7931 11.3411 75.7931H87.7569C89.2498 75.7931 90.4604 74.5786 90.4604 73.0896V26.5856C90.4604 25.0928 89.2459 23.8822 87.7569 23.8822H85.9314V65.9267C85.9314 68.87 83.5373 71.2678 80.5903 71.2678H18.5002C15.5569 71.2678 13.1591 68.8738 13.1591 65.9267V23.8822H11.3336H11.3411Z" fill="#00A3A5"/>
<path fill-rule="evenodd" clip-rule="evenodd" d="M70.2332 99.0139H28.8658C28.1387 99.0139 27.547 98.4221 27.547 97.695V88.7726C27.547 88.0455 28.1388 87.4538 28.8658 87.4538H70.2332C70.9603 87.4538 71.552 88.0455 71.552 88.7726V97.695C71.552 98.4222 70.9602 99.0139 70.2332 99.0139ZM30.1807 96.38H68.9144V90.0913H30.1807V96.38Z" fill="#00A3A5"/>
<path fill-rule="evenodd" clip-rule="evenodd" d="M54.1361 90.0911H44.9623C44.2352 90.0911 43.6435 89.4993 43.6435 88.7723V77.1119C43.6435 76.3848 44.2352 75.7931 44.9623 75.7931H54.1361C54.8632 75.7931 55.4549 76.3848 55.4549 77.1119V88.7723C55.4549 89.4994 54.8671 90.0911 54.1361 90.0911ZM46.2811 87.4572H52.8212V78.4342H46.2811V87.4572Z" fill="#00A3A5"/>
<path fill-rule="evenodd" clip-rule="evenodd" d="M80.5936 71.2643H18.5035C15.5602 71.2643 13.1624 68.8703 13.1624 65.9233V5.34109C13.1624 2.39782 15.5564 0 18.5035 0H80.5936C83.5368 0 85.9347 2.39406 85.9347 5.34109V65.9233C85.9347 68.8665 83.5406 71.2643 80.5936 71.2643ZM18.5035 2.63861C17.0106 2.63861 15.8 3.85307 15.8 5.34208V65.9242C15.8 67.4171 17.0145 68.6277 18.5035 68.6277H80.5936C82.0864 68.6277 83.297 67.4133 83.297 65.9242V5.34208C83.297 3.84921 82.0826 2.63861 80.5936 2.63861H18.5035Z" fill="#00A3A5"/>
<path fill-rule="evenodd" clip-rule="evenodd" d="M84.6124 14.9248H14.4817C13.7546 14.9248 13.1629 14.333 13.1629 13.6059C13.1629 12.8789 13.7546 12.2871 14.4817 12.2871H84.6124C85.3395 12.2871 85.9312 12.8789 85.9312 13.6059C85.9312 14.333 85.3394 14.9248 84.6124 14.9248Z" fill="#00A3A5"/>
<path fill-rule="evenodd" clip-rule="evenodd" d="M25.7639 8.78337H22.0549C21.3277 8.78337 20.736 8.19163 20.736 7.46456C20.736 6.73749 21.3278 6.14574 22.0549 6.14574H25.7639C26.491 6.14574 27.0827 6.73749 27.0827 7.46456C27.0827 8.19163 26.4909 8.78337 25.7639 8.78337Z" fill="#00A3A5"/>
<path fill-rule="evenodd" clip-rule="evenodd" d="M34.2797 8.78337H30.5707C29.8436 8.78337 29.2519 8.19163 29.2519 7.46456C29.2519 6.73749 29.8436 6.14574 30.5707 6.14574H34.2797C35.0068 6.14574 35.5985 6.73749 35.5985 7.46456C35.5985 8.19163 35.0068 8.78337 34.2797 8.78337Z" fill="#00A3A5"/>
<path fill-rule="evenodd" clip-rule="evenodd" d="M42.7926 8.78337H39.0836C38.3565 8.78337 37.7648 8.19163 37.7648 7.46456C37.7648 6.73749 38.3565 6.14574 39.0836 6.14574H42.7926C43.5197 6.14574 44.1114 6.73749 44.1114 7.46456C44.1114 8.19163 43.5196 8.78337 42.7926 8.78337Z" fill="#00A3A5"/>
<path fill-rule="evenodd" clip-rule="evenodd" d="M77.0441 8.78337H51.0886C50.3615 8.78337 49.7698 8.19163 49.7698 7.46456C49.7698 6.73749 50.3615 6.14574 51.0886 6.14574H77.0441C77.7712 6.14574 78.3629 6.73749 78.3629 7.46456C78.3629 8.19163 77.7711 8.78337 77.0441 8.78337Z" fill="#00A3A5"/>
<path fill-rule="evenodd" clip-rule="evenodd" d="M68.2292 64.6693H63.9362C63.2749 64.6693 62.7141 64.1781 62.629 63.5206L62.2616 60.6779L59.9643 62.4376C59.4422 62.836 58.7035 62.7934 58.2355 62.3255L55.1994 59.3165C54.7237 58.8446 54.6773 58.0981 55.0873 57.5722L56.8431 55.3213L53.985 54.9577C53.3275 54.8727 52.8324 54.3119 52.8324 53.6505V49.3962C52.8324 48.7348 53.3275 48.174 53.985 48.0889L56.8431 47.7254L55.0873 45.4745C54.6773 44.9485 54.7237 44.1982 55.1994 43.7302L58.2355 40.7212C58.7034 40.2571 59.4422 40.2107 59.9643 40.6091L62.2616 42.3688L62.629 39.5261C62.7141 38.8686 63.2749 38.3774 63.9362 38.3774H68.2292C68.8906 38.3774 69.4514 38.8686 69.5364 39.5261L69.9039 42.3688L72.2012 40.6091C72.7233 40.2068 73.462 40.2532 73.93 40.7174L76.966 43.7264C77.4418 44.1982 77.4882 44.9447 77.0782 45.4706L75.3224 47.7215L78.1805 48.0851C78.838 48.1663 79.333 48.7271 79.333 49.3923V53.6467C79.333 54.308 78.838 54.8688 78.1805 54.9539L75.3224 55.3136L77.0782 57.5645C77.4882 58.0904 77.4418 58.8408 76.966 59.3126L73.93 62.3216C73.462 62.7857 72.7233 62.8321 72.2012 62.4299L69.9039 60.6702L69.5364 63.5129C69.4514 64.1703 68.8944 64.6616 68.2292 64.6616V64.6693ZM65.0964 62.0354H67.0728L67.3938 59.5332C67.4595 59.0226 67.8154 58.5972 68.3065 58.4463C68.701 58.3226 69.0917 58.1601 69.463 57.9706C69.9155 57.7386 70.4608 57.785 70.8669 58.0944L72.8897 59.6453L74.2781 58.2684L72.7272 56.2805C72.4101 55.8706 72.3598 55.3175 72.5996 54.8573C72.793 54.4937 72.9515 54.1069 73.0753 53.7164C73.23 53.229 73.6554 52.8771 74.1621 52.8113L76.6915 52.4903V50.5566L74.1621 50.2356C73.6555 50.1698 73.23 49.8179 73.0714 49.3306C72.9477 48.9399 72.7852 48.5532 72.5957 48.1858C72.3559 47.7294 72.4062 47.1725 72.7234 46.7664L74.2743 44.7785L72.8858 43.4016L70.8631 44.9525C70.457 45.2619 69.9116 45.3122 69.4591 45.0763C69.0878 44.8829 68.6972 44.7243 68.3027 44.6006C67.8115 44.4459 67.4557 44.0205 67.3899 43.5138L67.0689 41.0153H65.0926L64.7716 43.5138C64.7058 44.0243 64.35 44.4458 63.8588 44.6006C63.4643 44.7243 63.0737 44.8868 62.7024 45.0763C62.2499 45.3084 61.7007 45.2619 61.2984 44.9525L59.2756 43.4016L57.8872 44.7785L59.4381 46.7664C59.7553 47.1725 59.8055 47.7294 59.5658 48.1858C59.3724 48.5532 59.2138 48.9361 59.09 49.3306C58.9353 49.8179 58.5099 50.1737 57.9993 50.2356L55.4699 50.5566V52.4903L57.9993 52.8113C58.506 52.8771 58.9314 53.229 59.0862 53.7164C59.2138 54.1109 59.3724 54.4976 59.5619 54.8573C59.8017 55.3175 59.7514 55.8744 59.4343 56.2805L57.8834 58.2684L59.2718 59.6453L61.2946 58.0944C61.7007 57.785 62.246 57.7347 62.6985 57.9706C63.0698 58.164 63.4604 58.3226 63.8549 58.4463C64.3461 58.601 64.7019 59.0226 64.7677 59.5332L65.0887 62.0316L65.0964 62.0354Z" fill="#00A3A5"/>
<path fill-rule="evenodd" clip-rule="evenodd" d="M66.0827 57.4069C62.8184 57.4069 60.1652 54.7692 60.1652 51.5282C60.1652 48.2872 62.8184 45.6495 66.0827 45.6495C69.3469 45.6495 72.0001 48.2872 72.0001 51.5282C72.0001 54.7692 69.3469 57.4069 66.0827 57.4069ZM66.0827 48.2872C64.2727 48.2872 62.7991 49.7415 62.7991 51.5282C62.7991 53.3151 64.2727 54.7731 66.0827 54.7731C67.8927 54.7731 69.3662 53.3188 69.3662 51.5282C69.3662 49.7414 67.8927 48.2872 66.0827 48.2872Z" fill="#00A3A5"/>
<path fill-rule="evenodd" clip-rule="evenodd" d="M46.9728 64.6693H21.0866C20.3595 64.6693 19.7678 64.0776 19.7678 63.3505V47.5247C19.7678 46.7976 20.3596 46.2059 21.0866 46.2059H46.9728C47.6999 46.2059 48.2916 46.7977 48.2916 47.5247V63.3505C48.2916 64.0776 47.6998 64.6693 46.9728 64.6693ZM22.4064 62.0354H45.6579V48.8473H22.4064V62.0354Z" fill="#00A3A5"/>
<path fill-rule="evenodd" clip-rule="evenodd" d="M67.4015 21.5188H31.6965C30.9694 21.5188 30.3777 20.9271 30.3777 20.2C30.3777 19.4729 30.9695 18.8812 31.6965 18.8812H67.4015C68.1286 18.8812 68.7203 19.4729 68.7203 20.2C68.7203 20.9271 68.1285 21.5188 67.4015 21.5188Z" fill="#00A3A5"/>
<path fill-rule="evenodd" clip-rule="evenodd" d="M78.0104 28.0208H21.0876C20.3605 28.0208 19.7688 27.429 19.7688 26.702C19.7688 25.9749 20.3606 25.3832 21.0876 25.3832H78.0144C78.7415 25.3832 79.3332 25.9749 79.3332 26.702C79.3332 27.429 78.7414 28.0208 78.0144 28.0208H78.0104Z" fill="#00A3A5"/>
<path fill-rule="evenodd" clip-rule="evenodd" d="M78.0104 34.5178H21.0876C20.3605 34.5178 19.7688 33.9261 19.7688 33.199C19.7688 32.4719 20.3606 31.8802 21.0876 31.8802H78.0144C78.7415 31.8802 79.3332 32.4719 79.3332 33.199C79.3332 33.9261 78.7414 34.5178 78.0144 34.5178H78.0104Z" fill="#00A3A5"/>
<path fill-rule="evenodd" clip-rule="evenodd" d="M49.6183 41.0198H21.0876C20.3605 41.0198 19.7688 40.4281 19.7688 39.701C19.7688 38.9739 20.3606 38.3822 21.0876 38.3822H49.6183C50.3454 38.3822 50.9371 38.9739 50.9371 39.701C50.9371 40.4281 50.3493 41.0198 49.6183 41.0198Z" fill="#00A3A5"/>
<path fill-rule="evenodd" clip-rule="evenodd" d="M38.5035 60.1218C38.167 60.1218 37.8305 59.9941 37.5714 59.735C37.057 59.2206 37.057 58.3852 37.5714 57.8709L40.0041 55.4382L37.5714 53.0055C37.057 52.4911 37.057 51.6557 37.5714 51.1414C38.0858 50.627 38.9212 50.627 39.4355 51.1414L42.8003 54.5061C43.0478 54.7536 43.187 55.0862 43.187 55.4382C43.187 55.7863 43.0478 56.1228 42.8003 56.3703L39.4355 59.735C39.1803 59.9942 38.84 60.1218 38.5035 60.1218Z" fill="#00A3A5"/>
<path fill-rule="evenodd" clip-rule="evenodd" d="M29.5579 60.1218C29.2214 60.1218 28.885 59.9941 28.6258 59.735L25.2611 56.3703C25.0136 56.1227 24.8743 55.7901 24.8743 55.4382C24.8743 55.0901 25.0136 54.7536 25.2611 54.5061L28.6258 51.1413C29.1402 50.6269 29.9756 50.6269 30.49 51.1413C31.0044 51.6557 31.0044 52.4911 30.49 53.0055L28.0573 55.4382L30.49 57.8708C31.0044 58.3852 31.0044 59.2206 30.49 59.735C30.2309 59.9902 29.8944 60.1218 29.5579 60.1218Z" fill="#00A3A5"/>
<path fill-rule="evenodd" clip-rule="evenodd" d="M33.147 60.1257C33.0349 60.1257 32.9188 60.1103 32.8028 60.0793C32.0989 59.8898 31.6812 59.1666 31.8707 58.4666L33.673 51.7369C33.8625 51.033 34.5819 50.6154 35.2858 50.8049C35.9897 50.9944 36.4074 51.7176 36.2179 52.4176L34.4156 59.1472C34.257 59.7351 33.7272 60.1257 33.1431 60.1257L33.147 60.1257Z" fill="#00A3A5"/>
</svg>
