<svg width="100" height="100" viewBox="0 0 100 100" fill="none" xmlns="http://www.w3.org/2000/svg">
<path d="M76.6667 76.6667H73.3334V83.3334H43.3333V86.6667H73.3334V91.6668C73.3334 92.9928 72.8066 94.2646 71.8689 95.2023C70.9312 96.14 69.6595 96.6668 68.3334 96.6668H31.6666C30.7888 96.6655 29.9266 96.4339 29.1662 95.9952C28.4058 95.5566 27.7738 94.9261 27.3333 94.1668L24.4466 95.8334C25.181 97.0983 26.2341 98.1487 27.5009 98.8798C28.7677 99.6108 30.204 99.9971 31.6666 100H68.3334C70.5427 99.9975 72.6608 99.1186 74.223 97.5564C75.7853 95.9942 76.6641 93.8761 76.6667 91.6668V76.6667Z" fill="#00A3A5"/>
<path d="M51.6667 90.0001H48.3333V93.3334H51.6667V90.0001Z" fill="#00A3A5"/>
<path d="M58.3334 45V41.6667H53.2484C52.8466 36.5186 50.6194 31.6833 46.968 28.0319C43.3167 24.3806 38.4814 22.1534 33.3333 21.7516V16.6666H30V21.7516C28.877 21.8375 27.7625 22.0114 26.6667 22.2716V13.3333H53.3334V9.99992H26.6667V8.33325C26.6667 7.00716 27.1934 5.73539 28.1311 4.7977C29.0688 3.86002 30.3406 3.33323 31.6667 3.33323H68.3334C69.5511 3.33336 70.7268 3.77783 71.6401 4.58324L73.8451 2.08323C72.3234 0.739957 70.3632 -0.000951067 68.3334 -0.00010609H31.6667C29.4573 0.00254035 27.3393 0.881366 25.777 2.4436C24.2148 4.00583 23.336 6.12392 23.3333 8.33325V23.3333C19.6525 24.8751 16.4682 27.4022 14.1308 30.6368C11.7934 33.8713 10.3935 37.6879 10.0849 41.6667H4.99994V45H10.0883C10.4687 50.156 12.6884 55.0038 16.3431 58.6606C19.9977 62.3174 24.8442 64.5399 30 64.9234V70H33.3333V64.9234C38.4891 64.5399 43.3356 62.3174 46.9903 58.6606C50.6449 55.0038 52.8646 50.156 53.245 45H58.3334ZM30 58.3334V61.59C27.6753 61.3809 25.4122 60.728 23.3333 59.6667V56.6667C23.3333 54.4565 24.2113 52.3369 25.7741 50.7741C27.3369 49.2113 29.4565 48.3333 31.6667 48.3333C33.8768 48.3333 35.9964 49.2113 37.5592 50.7741C39.122 52.3369 40 54.4565 40 56.6667V59.6667C37.9212 60.729 35.6582 61.3835 33.3333 61.595V58.3334H30ZM26.6667 40C26.6667 39.0111 26.9599 38.0444 27.5093 37.2221C28.0587 36.3999 28.8396 35.759 29.7532 35.3806C30.6669 35.0021 31.6722 34.9031 32.6421 35.096C33.612 35.289 34.5029 35.7652 35.2022 36.4644C35.9015 37.1637 36.3777 38.0546 36.5706 39.0245C36.7635 39.9944 36.6645 40.9998 36.2861 41.9134C35.9076 42.827 35.2668 43.6079 34.4445 44.1573C33.6223 44.7067 32.6556 45 31.6667 45C30.3406 45 29.0688 44.4732 28.1311 43.5355C27.1934 42.5978 26.6667 41.3261 26.6667 40ZM43.8884 57C43.7084 57.1667 43.5167 57.3 43.3334 57.4534V56.6667C43.3312 54.5307 42.7428 52.4364 41.6322 50.6119C40.5216 48.7874 38.9314 47.3028 37.035 46.32C38.342 45.2191 39.279 43.7431 39.719 42.0919C40.159 40.4406 40.0808 38.694 39.4948 37.0888C38.9089 35.4835 37.8436 34.0972 36.4433 33.1177C35.0431 32.1382 33.3755 31.6128 31.6667 31.6128C29.9578 31.6128 28.2903 32.1382 26.89 33.1177C25.4897 34.0972 24.4245 35.4835 23.8385 37.0888C23.2526 38.694 23.1743 40.4406 23.6143 42.0919C24.0543 43.7431 24.9913 45.2191 26.2983 46.32C24.4019 47.3028 22.8118 48.7874 21.7011 50.6119C20.5905 52.4364 20.0021 54.5307 20 56.6667V57.4617C19.815 57.31 19.6233 57.1684 19.445 57.0084C15.991 53.9112 13.8388 49.6204 13.4216 45H16.6666V41.6667H13.4183C13.8128 37.4021 15.6865 33.4099 18.7149 30.3815C21.7432 27.3532 25.7355 25.4795 30 25.0849V28.3333H33.3333V25.0849C37.5979 25.4795 41.5901 27.3532 44.6185 30.3815C47.6468 33.4099 49.5205 37.4021 49.915 41.6667H46.6667V45H49.9117C49.4945 49.6204 47.3423 53.9112 43.8884 57.0084V57Z" fill="#00A3A5"/>
<path d="M95.0001 30C95.4422 30 95.8661 29.8244 96.1786 29.5118C96.4912 29.1992 96.6668 28.7753 96.6668 28.3333V8.33324C96.6668 7.89121 96.4912 7.46728 96.1786 7.15472C95.8661 6.84216 95.4422 6.66656 95.0001 6.66656H58.3334C57.8913 6.66656 57.4674 6.84216 57.1549 7.15472C56.8423 7.46728 56.6667 7.89121 56.6667 8.33324V28.3333C56.6667 28.7753 56.8423 29.1992 57.1549 29.5118C57.4674 29.8244 57.8913 30 58.3334 30H95.0001ZM60 9.99991H93.3335V26.6666H60V9.99991Z" fill="#00A3A5"/>
<path d="M70.0001 13.3333H63.3334V16.6666H70.0001V13.3333Z" fill="#00A3A5"/>
<path d="M90.0001 13.3333H73.3334V16.6666H90.0001V13.3333Z" fill="#00A3A5"/>
<path d="M90.0001 19.9999H63.3334V23.3333H90.0001V19.9999Z" fill="#00A3A5"/>
<path d="M94.7051 33.3333C93.4148 33.3354 92.1698 33.8097 91.2051 34.6666L76.6668 47.4833V33.3333H73.3334V50H73.8151L64.3334 58.3667C61.3619 58.5368 58.5678 59.8361 56.5229 61.9987C54.4781 64.1613 53.337 67.0237 53.3334 70V72.94C53.3367 73.7509 53.1124 74.5464 52.6861 75.2361C52.2598 75.9259 51.6485 76.4821 50.9217 76.8417C50.5854 77.0093 50.3156 77.2857 50.1561 77.6259C49.9966 77.9661 49.9567 78.3503 50.043 78.716C50.1293 79.0818 50.3366 79.4076 50.6313 79.6407C50.9261 79.8738 51.2909 80.0004 51.6667 80.0001H63.3334C66.3097 79.9964 69.1721 78.8554 71.3347 76.8105C73.4974 74.7656 74.7967 71.9715 74.9668 69L98.6768 42.13C99.3506 41.3657 99.7896 40.4232 99.9411 39.4156C100.093 38.408 99.9502 37.3781 99.5309 36.4494C99.1116 35.5208 98.4333 34.7328 97.5773 34.1801C96.7213 33.6273 95.7241 33.3333 94.7051 33.3333ZM63.3334 76.6667H55.7117C56.3405 75.5254 56.6691 74.2431 56.6667 72.94V70C56.6694 67.9061 57.4592 65.8897 58.8794 64.3509C60.2996 62.8122 62.2464 61.8636 64.3334 61.6934L71.6401 69C71.4703 71.0872 70.5218 73.0342 68.9829 74.4545C67.4441 75.8747 65.4275 76.6644 63.3334 76.6667ZM96.1768 39.925L73.2584 65.9L67.4334 60.0767L93.4085 37.1566C93.7829 36.8281 94.2683 36.6542 94.7662 36.6705C95.2641 36.6867 95.7372 36.8917 96.0895 37.244C96.4417 37.5962 96.6468 38.0693 96.663 38.5672C96.6792 39.0651 96.5054 39.5505 96.1768 39.925Z" fill="#00A3A5"/>
<path d="M1.66658 91.6668H38.3333C38.7754 91.6668 39.1993 91.4912 39.5118 91.1786C39.8244 90.8661 40 90.4421 40 90.0001V76.6667C40 76.2247 39.8244 75.8008 39.5118 75.4882C39.1993 75.1757 38.7754 75.0001 38.3333 75.0001H26.6666V66.6667H23.3333V75.0001H1.66658C1.22455 75.0001 0.800626 75.1757 0.488065 75.4882C0.175504 75.8008 -9.15527e-05 76.2247 -9.15527e-05 76.6667V90.0001C-9.15527e-05 90.4421 0.175504 90.8661 0.488065 91.1786C0.800626 91.4912 1.22455 91.6668 1.66658 91.6668ZM3.33325 78.3334H36.6667V88.3334H3.33325V78.3334Z" fill="#00A3A5"/>
<path d="M14.9999 81.6667H6.6666V85.0001H14.9999V81.6667Z" fill="#00A3A5"/>
<path d="M33.3333 81.6667H18.3333V85.0001H33.3333V81.6667Z" fill="#00A3A5"/>
<path d="M1.66658 23.3333H18.3333C18.7753 23.3333 19.1992 23.1577 19.5118 22.8451C19.8244 22.5326 20 22.1086 20 21.6666V8.33324C20 7.89121 19.8244 7.46728 19.5118 7.15472C19.1992 6.84216 18.7753 6.66656 18.3333 6.66656H1.66658C1.22455 6.66656 0.800626 6.84216 0.488065 7.15472C0.175504 7.46728 -9.15527e-05 7.89121 -9.15527e-05 8.33324V21.6666C-9.15527e-05 22.1086 0.175504 22.5326 0.488065 22.8451C0.800626 23.1577 1.22455 23.3333 1.66658 23.3333ZM3.33325 9.99991H16.6666V19.9999H3.33325V9.99991Z" fill="#00A3A5"/>
<path d="M13.3333 13.3333H6.6666V16.6666H13.3333V13.3333Z" fill="#00A3A5"/>
</svg>
