<svg width="100" height="100" viewBox="0 0 100 100" fill="none" xmlns="http://www.w3.org/2000/svg">
<path fill-rule="evenodd" clip-rule="evenodd" d="M16.6621 62.9379C15.0759 61.8793 13.0345 61.781 11.3517 62.681C9.67069 63.581 8.62069 65.3345 8.62069 67.2414V74.1379C8.62069 76.0448 9.67069 77.7983 11.3517 78.6983C13.0345 79.5983 15.0759 79.5 16.6621 78.4414L21.8345 74.9931C23.2741 74.0345 24.1379 72.419 24.1379 70.6897C24.1379 68.9603 23.2741 67.3448 21.8345 66.3862L16.6621 62.9379ZM14.75 65.8069L19.9224 69.2552C20.4017 69.5741 20.6897 70.1138 20.6897 70.6897C20.6897 71.2655 20.4017 71.8052 19.9224 72.1241L14.75 75.5724C14.2207 75.9259 13.5397 75.9586 12.9793 75.6586C12.419 75.3586 12.069 74.7741 12.069 74.1379V67.2414C12.069 66.6052 12.419 66.0207 12.9793 65.7207C13.5397 65.4207 14.2207 65.4534 14.75 65.8069Z" fill="#00A3A5"/>
<path fill-rule="evenodd" clip-rule="evenodd" d="M82.7586 24.1379V32.6362L42.8949 72.5C41.9242 73.4707 41.3793 74.7862 41.3793 76.1586C41.3793 77.9103 41.3793 80.881 41.3793 82.7586C41.3793 83.6724 41.7431 84.55 42.3897 85.1966C43.0362 85.8431 43.9138 86.2069 44.8276 86.2069H51.4276C52.8 86.2069 54.1155 85.6621 55.0862 84.6914L82.7586 57.019V63.7931C82.7586 64.7448 83.531 65.5172 84.4828 65.5172C85.4345 65.5172 86.2069 64.7448 86.2069 63.7931V53.5707L97.4759 42.3035C100.84 38.9379 100.84 33.4759 97.4759 30.1103C94.4035 27.0396 89.5828 26.7724 86.2069 29.3086V24.1379H94.8276C97.6845 24.1379 100 21.8224 100 18.9655V5.17241C100 2.31724 97.6845 0 94.8276 0H74.1379C71.281 0 68.9655 2.31724 68.9655 5.17241V18.9655C68.9655 21.8224 71.281 24.1379 74.1379 24.1379H82.7586ZM44.8276 82.7586H50.7138L44.8276 76.8724V82.7586ZM46.5517 73.719L53.8672 81.0345L90.369 44.531L83.0552 37.2172L46.5517 73.719ZM92.8069 42.0931L85.4931 34.7793L87.7225 32.55C89.7397 30.531 93.0189 30.531 95.0362 32.55C97.0551 34.5672 97.0551 37.8466 95.0362 39.8638L92.8069 42.0931ZM74.1379 20.6897H94.8276C95.7793 20.6897 96.5517 19.919 96.5517 18.9655V10.2397L87.3517 16.3741C85.6138 17.531 83.35 17.531 81.6138 16.3741L72.4138 10.2397V18.9655C72.4138 19.919 73.1862 20.6897 74.1379 20.6897ZM96.5517 5.20172V5.17241C96.5517 4.22069 95.7793 3.44828 94.8276 3.44828H74.1379C73.1862 3.44828 72.4138 4.22069 72.4138 5.17241V5.20172C72.4224 5.75689 72.7017 6.28793 73.181 6.6069L83.5259 13.5034C84.1052 13.8897 84.8603 13.8897 85.4396 13.5034L95.7845 6.6069C96.2638 6.28793 96.5431 5.75689 96.5517 5.20172Z" fill="#00A3A5"/>
<path fill-rule="evenodd" clip-rule="evenodd" d="M13.7931 13.7931H8.62069C3.86034 13.7931 0 17.6534 0 22.4138C0 26.6259 0 31.9948 0 36.2069C0 40.9672 3.86034 44.8276 8.62069 44.8276H13.7931V55.2672C6.03965 56.1259 0 62.7086 0 70.6897C0 78.6707 6.03965 85.2534 13.7931 86.1121V91.3793C13.7931 96.1397 17.6534 100 22.4138 100C35.6276 100 91.3793 100 91.3793 100C96.1397 100 100 96.1397 100 91.3793C100 87.1672 100 81.7983 100 77.5862C100 72.8259 96.1397 68.9655 91.3793 68.9655C87.1672 68.9655 81.7983 68.9655 77.5862 68.9655C72.8259 68.9655 68.9655 72.8259 68.9655 77.5862V91.3793C68.9655 93.3207 69.6069 95.1103 70.6897 96.5517H22.4138C19.5569 96.5517 17.2414 94.2362 17.2414 91.3793V86.1121C24.9948 85.2534 31.0345 78.6707 31.0345 70.6897C31.0345 62.7086 24.9948 56.1259 17.2414 55.2672V44.8276H22.4138C27.1741 44.8276 31.0345 40.9672 31.0345 36.2069V22.4138C31.0345 17.6534 27.1741 13.7931 22.4138 13.7931H17.2414V8.62069C17.2414 5.76552 19.5569 3.44828 22.4138 3.44828C31.9914 3.44828 49.7259 3.44828 63.7931 3.44828C64.7448 3.44828 65.5172 2.67586 65.5172 1.72414C65.5172 0.772414 64.7448 0 63.7931 0C49.7259 0 31.9914 0 22.4138 0C17.6534 0 13.7931 3.86034 13.7931 8.62069V13.7931ZM92.9311 86.2069C92.1311 90.1397 88.65 93.1034 84.4828 93.1034C80.3155 93.1034 76.8344 90.1397 76.0344 86.2069H72.4138V91.3793C72.4138 94.2362 74.7293 96.5517 77.5862 96.5517H91.3793C94.2362 96.5517 96.5517 94.2362 96.5517 91.3793V86.2069H92.9311ZM84.4828 79.3103C87.3379 79.3103 89.6552 81.6276 89.6552 84.4828C89.6552 87.3379 87.3379 89.6552 84.4828 89.6552C81.6276 89.6552 79.3103 87.3379 79.3103 84.4828C79.3103 81.6276 81.6276 79.3103 84.4828 79.3103ZM96.5517 82.7586V77.5862C96.5517 74.7293 94.2362 72.4138 91.3793 72.4138H77.5862C74.7293 72.4138 72.4138 74.7293 72.4138 77.5862V82.7586H76.0344C76.8344 78.8259 80.3155 75.8621 84.4828 75.8621C88.65 75.8621 92.1311 78.8259 92.9311 82.7586H96.5517ZM15.5172 58.6207C22.1776 58.6207 27.5862 64.0293 27.5862 70.6897C27.5862 77.35 22.1776 82.7586 15.5172 82.7586C8.8569 82.7586 3.44828 77.35 3.44828 70.6897C3.44828 64.0293 8.8569 58.6207 15.5172 58.6207ZM27.5862 22.4138V36.2069C27.5862 39.0638 25.2707 41.3793 22.4138 41.3793H8.62069C5.76379 41.3793 3.44828 39.0638 3.44828 36.2069V22.4138C3.44828 19.5569 5.76379 17.2414 8.62069 17.2414H22.4138C25.2707 17.2414 27.5862 19.5569 27.5862 22.4138Z" fill="#00A3A5"/>
<path fill-rule="evenodd" clip-rule="evenodd" d="M36.2069 17.2414H63.7931C64.7448 17.2414 65.5172 16.469 65.5172 15.5172C65.5172 14.5655 64.7448 13.7931 63.7931 13.7931H36.2069C35.2552 13.7931 34.4828 14.5655 34.4828 15.5172C34.4828 16.469 35.2552 17.2414 36.2069 17.2414Z" fill="#00A3A5"/>
<path fill-rule="evenodd" clip-rule="evenodd" d="M36.2069 24.1379H43.1034C44.0552 24.1379 44.8276 23.3655 44.8276 22.4138C44.8276 21.4621 44.0552 20.6897 43.1034 20.6897H36.2069C35.2552 20.6897 34.4828 21.4621 34.4828 22.4138C34.4828 23.3655 35.2552 24.1379 36.2069 24.1379Z" fill="#00A3A5"/>
<path fill-rule="evenodd" clip-rule="evenodd" d="M50 24.1379H63.7931C64.7448 24.1379 65.5172 23.3655 65.5172 22.4138C65.5172 21.4621 64.7448 20.6897 63.7931 20.6897H50C49.0483 20.6897 48.2759 21.4621 48.2759 22.4138C48.2759 23.3655 49.0483 24.1379 50 24.1379Z" fill="#00A3A5"/>
<path fill-rule="evenodd" clip-rule="evenodd" d="M36.2069 31.0345H70.6897C71.6414 31.0345 72.4138 30.2621 72.4138 29.3103C72.4138 28.3586 71.6414 27.5862 70.6897 27.5862H36.2069C35.2552 27.5862 34.4828 28.3586 34.4828 29.3103C34.4828 30.2621 35.2552 31.0345 36.2069 31.0345Z" fill="#00A3A5"/>
<path fill-rule="evenodd" clip-rule="evenodd" d="M36.2069 37.931H70.6897C71.6414 37.931 72.4138 37.1586 72.4138 36.2069C72.4138 35.2552 71.6414 34.4828 70.6897 34.4828H36.2069C35.2552 34.4828 34.4828 35.2552 34.4828 36.2069C34.4828 37.1586 35.2552 37.931 36.2069 37.931Z" fill="#00A3A5"/>
<path fill-rule="evenodd" clip-rule="evenodd" d="M36.2069 44.8276H63.7931C64.7448 44.8276 65.5172 44.0552 65.5172 43.1034C65.5172 42.1517 64.7448 41.3793 63.7931 41.3793H36.2069C35.2552 41.3793 34.4828 42.1517 34.4828 43.1034C34.4828 44.0552 35.2552 44.8276 36.2069 44.8276Z" fill="#00A3A5"/>
<path fill-rule="evenodd" clip-rule="evenodd" d="M8.62069 24.1379H15.5172C16.469 24.1379 17.2414 23.3655 17.2414 22.4138C17.2414 21.4621 16.469 20.6897 15.5172 20.6897H8.62069C7.66896 20.6897 6.89655 21.4621 6.89655 22.4138C6.89655 23.3655 7.66896 24.1379 8.62069 24.1379Z" fill="#00A3A5"/>
<path fill-rule="evenodd" clip-rule="evenodd" d="M8.62069 31.0345H22.4138C23.3655 31.0345 24.1379 30.2621 24.1379 29.3103C24.1379 28.3586 23.3655 27.5862 22.4138 27.5862H8.62069C7.66896 27.5862 6.89655 28.3586 6.89655 29.3103C6.89655 30.2621 7.66896 31.0345 8.62069 31.0345Z" fill="#00A3A5"/>
<path fill-rule="evenodd" clip-rule="evenodd" d="M8.62069 37.931H22.4138C23.3655 37.931 24.1379 37.1586 24.1379 36.2069C24.1379 35.2552 23.3655 34.4828 22.4138 34.4828H8.62069C7.66896 34.4828 6.89655 35.2552 6.89655 36.2069C6.89655 37.1586 7.66896 37.931 8.62069 37.931Z" fill="#00A3A5"/>
</svg>
